<svg width="58" height="58" viewBox="0 0 58 58" fill="none" xmlns="http://www.w3.org/2000/svg">
<rect width="58" height="58" rx="12" fill="#FDEFFF"/>
<rect x="11.6001" y="42.5332" width="34.8" height="1.28889" rx="0.644444" fill="#CB8BE9"/>
<rect x="19.978" y="22.5553" width="9.02222" height="1.28889" rx="0.644444" fill="#CB8BE9"/>
<rect x="34.8003" y="26.4219" width="4.51111" height="1.28889" rx="0.644444" fill="#CB8BE9"/>
<rect x="34.8003" y="34.8002" width="4.51111" height="1.28889" rx="0.644444" fill="#CB8BE9"/>
<rect x="19.978" y="32.8668" width="9.02222" height="1.28889" rx="0.644444" fill="#CB8BE9"/>
<path d="M30.9335 14.8223C31.9632 14.8223 32.8048 15.6271 32.8636 16.642L32.8669 16.7556V43.1593H31.578V16.7556C31.578 16.4251 31.3292 16.1527 31.0087 16.1155L30.9335 16.1112H18.0447C17.7142 16.1112 17.4418 16.3599 17.4046 16.6804L17.4002 16.7556V43.242H16.1113V16.7556C16.1113 15.726 16.9162 14.8844 17.9311 14.8255L18.0447 14.8223H30.9335Z" fill="#CB8BE9"/>
<path d="M40.6003 19.3331C41.63 19.3331 42.4716 20.138 42.5304 21.1529L42.5337 21.2665V43.1891C42.5337 43.545 42.2452 43.8335 41.8892 43.8335C41.5587 43.8335 41.2864 43.5847 41.2491 43.2642L41.2448 43.1891V21.2665C41.2448 20.936 40.996 20.6636 40.6755 20.6264L40.6003 20.622H34.8422C34.4863 20.622 34.1978 20.3335 34.1978 19.9776C34.1978 19.6471 34.4465 19.3747 34.767 19.3375L34.8422 19.3331H40.6003Z" fill="#CB8BE9"/>
</svg>
