<svg width="58" height="58" viewBox="0 0 58 58" fill="none" xmlns="http://www.w3.org/2000/svg">
<rect width="58" height="58" rx="12" fill="#DDFBFD"/>
<path fill-rule="evenodd" clip-rule="evenodd" d="M29.0204 13.2463H29.06C29.1203 13.2463 29.1804 13.2548 29.2383 13.2715L41.8599 16.9072C42.6326 17.1298 43.1854 17.8069 43.2531 18.6316L43.2581 18.765V31.7306C43.2581 37.5232 38.8431 41.8649 30.1883 44.7606L29.8517 44.8718L29.4344 45.0041C29.3372 45.069 29.2229 45.1071 29.1026 45.1112L29.0413 45.1091L28.9806 45.1112C28.861 45.1078 28.7471 45.0706 28.6456 45.0041L28.2244 44.8704C19.4597 42.0109 14.9347 37.7055 14.8243 31.9472L14.8223 31.7306V18.765C14.8223 17.9034 15.3925 17.1457 16.2205 16.9072L28.842 13.2715C28.9 13.2548 28.96 13.2463 29.0204 13.2463ZM29.04 14.5547L16.5772 18.1451C16.3012 18.2246 16.1111 18.4772 16.1111 18.7644V31.73C16.1111 36.9291 20.2217 40.9031 28.6201 43.6432L29.0387 43.7771L29.4538 43.6452L29.7816 43.5369C37.9658 40.7987 41.9692 36.8618 41.9692 31.73L41.9697 18.7909L41.9669 18.7107C41.945 18.4451 41.7606 18.2193 41.5031 18.1451L29.04 14.5547Z" fill="#6EA2F2"/>
<path d="M32.2156 22.0593C32.4685 21.8496 32.8342 21.8659 33.0675 22.0852L33.123 22.1442L35.9726 25.5826C36.305 25.9836 36.0478 26.581 35.5493 26.6345L35.4765 26.6383H21.849C21.4931 26.6383 21.2046 26.3498 21.2046 25.9939C21.2046 25.6634 21.4534 25.391 21.7739 25.3538L21.849 25.3494L34.1049 25.3491L32.1306 22.9667C31.921 22.7137 31.9373 22.3481 32.1565 22.1147L32.2156 22.0593Z" fill="#6EA2F2"/>
<path d="M25.1736 34.868C24.9206 35.0776 24.555 35.0613 24.3216 34.842L24.2662 34.783L21.4165 31.3446C21.0842 30.9436 21.3413 30.3463 21.8399 30.2928L21.9127 30.2889H35.5401C35.896 30.2889 36.1846 30.5775 36.1846 30.9334C36.1846 31.2639 35.9358 31.5363 35.6153 31.5735L35.5401 31.5778L23.2841 31.5781L25.2585 33.9605C25.4682 34.2135 25.4519 34.5791 25.2326 34.8125L25.1736 34.868Z" fill="#6EA2F2"/>
</svg>
