<svg width="58" height="58" viewBox="0 0 58 58" fill="none" xmlns="http://www.w3.org/2000/svg">
<rect width="58" height="58" rx="12" fill="#F0FAD1"/>
<path fill-rule="evenodd" clip-rule="evenodd" d="M18.921 18.9725H42.6366C43.6474 18.9725 44.4668 19.792 44.4668 20.8028V38.5894C44.4668 39.6002 43.6474 40.4196 42.6366 40.4196H32.3062L25.769 44.2171C25.5833 44.3249 25.3804 44.399 25.1502 44.4379L25.0088 44.4571L24.8499 44.4646C23.8949 44.4646 23.1026 43.7305 23.0242 42.7576L23.0197 42.6343V40.4196H18.921C17.9477 40.4196 17.1518 39.6598 17.0942 38.7009L17.0908 38.5894V20.8028C17.0908 19.792 17.9102 18.9725 18.921 18.9725ZM42.6366 20.2614H18.921C18.6221 20.2614 18.3797 20.5038 18.3797 20.8027V38.5894C18.3797 38.8884 18.6221 39.1307 18.921 39.1307H23.6641C24.0201 39.1307 24.3086 39.4193 24.3086 39.7752L24.3081 42.6083L24.3104 42.6794C24.333 42.9583 24.5676 43.1756 24.8159 43.1765L24.9069 43.1726C24.9826 43.1646 25.0558 43.1407 25.1217 43.1025L31.8098 39.2179C31.9081 39.1608 32.0197 39.1307 32.1334 39.1307H42.6366C42.9355 39.1307 43.1779 38.8884 43.1779 38.5894V20.8027C43.1779 20.5038 42.9355 20.2614 42.6366 20.2614Z" fill="#91A76F"/>
<rect x="21.2925" y="24.9526" width="18.9724" height="1.28889" rx="0.644444" fill="#91A76F"/>
<rect x="21.2925" y="32.6604" width="10.0791" height="1.28889" rx="0.644444" fill="#91A76F"/>
<rect x="35.7539" y="32.6604" width="4.51111" height="1.28889" rx="0.644444" fill="#91A76F"/>
<path d="M35.3598 14.8224C35.7157 14.8224 36.0043 15.1109 36.0043 15.4668C36.0043 15.7973 35.7555 16.0697 35.435 16.1069L35.3598 16.1113H15.3634C15.0875 16.1113 14.8597 16.3178 14.8263 16.5847L14.8221 16.6526V32.2015C14.8221 32.5574 14.5336 32.8459 14.1776 32.8459C13.8472 32.8459 13.5748 32.5971 13.5375 32.2766L13.5332 32.2015V16.6526C13.5332 15.6792 14.293 14.8833 15.2519 14.8257L15.3634 14.8224H35.3598Z" fill="#91A76F"/>
</svg>
