<svg width="58" height="58" viewBox="0 0 58 58" fill="none" xmlns="http://www.w3.org/2000/svg">
<rect width="58" height="58" rx="12" fill="#EEFAF3"/>
<path d="M41.3521 33.33C41.6825 33.33 41.9549 33.5787 41.9922 33.8992L41.9965 33.9744V41.3786C41.9965 42.3796 41.214 43.1978 40.2273 43.255L40.1169 43.2582H17.8835C16.8825 43.2582 16.0643 42.4757 16.0071 41.489L16.0039 41.3786V33.9999C16.0039 33.644 16.2924 33.3554 16.6484 33.3554C16.9788 33.3554 17.2512 33.6042 17.2885 33.9247L17.2928 33.9999V41.3786C17.2928 41.6815 17.5208 41.9312 17.8146 41.9653L17.8835 41.9693H40.1169C40.4198 41.9693 40.6695 41.7413 40.7036 41.4475L40.7076 41.3786V33.9744C40.7076 33.6185 40.9961 33.33 41.3521 33.33Z" fill="#91C3A2"/>
<path fill-rule="evenodd" clip-rule="evenodd" d="M19.686 14.1775H38.3144C39.0841 14.1775 39.7761 14.6468 40.0558 15.3499L44.2381 25.2657C44.4006 25.6511 44.4637 26.0711 44.4209 26.4945L44.3896 26.7727C44.3604 27.0041 44.3281 27.1902 44.2902 27.337C43.6592 29.784 41.444 31.5238 38.8817 31.5238C36.7566 31.5238 34.9035 30.3351 33.9598 28.5779L33.9412 28.5428L33.922 28.5814C33.0032 30.289 31.2222 31.4608 29.1674 31.5213L29.0002 31.5238C26.8751 31.5238 25.0221 30.3351 24.0783 28.5779L24.0599 28.5428L23.9489 28.7449C23.0065 30.3634 21.2744 31.4628 19.2859 31.5213L19.1187 31.5238C16.5538 31.5238 14.337 29.7805 13.7084 27.3301C13.6719 27.1876 13.6401 27.0055 13.6114 26.7794L13.5785 26.4866C13.5366 26.0708 13.5998 25.6511 13.7622 25.2661L17.9879 15.2512C18.2974 14.5987 18.9568 14.1775 19.686 14.1775ZM38.3144 15.4664H19.686C19.4441 15.4664 19.2266 15.6139 19.1322 15.8508L14.9498 25.767C14.8712 25.9533 14.8406 26.1564 14.8609 26.3576C14.8918 26.6653 14.9253 26.8867 14.9569 27.0099C15.4401 28.8935 17.1458 30.2349 19.1187 30.2349C21.4416 30.2349 23.3421 28.3883 23.4128 26.0827L23.4151 25.9288C23.428 25.0826 24.6909 25.0826 24.7038 25.9288L24.706 26.0728C24.7768 28.3883 26.6773 30.2349 29.0002 30.2349C31.3231 30.2349 33.2236 28.3883 33.2942 26.0827L33.2966 25.9288C33.3095 25.0826 34.5724 25.0826 34.5853 25.9288L34.5874 26.0728C34.6583 28.3883 36.5588 30.2349 38.8817 30.2349C40.8526 30.2349 42.557 28.8962 43.0422 27.0151C43.0554 26.9639 43.0692 26.8943 43.0829 26.8093L43.1098 26.62L43.1394 26.3577C43.1597 26.1563 43.1291 25.9531 43.0505 25.7667L38.8632 15.8387C38.7738 15.6139 38.5563 15.4664 38.3144 15.4664Z" fill="#91C3A2"/>
</svg>
