<svg width="58" height="58" viewBox="0 0 58 58" fill="none" xmlns="http://www.w3.org/2000/svg">
<rect width="58" height="58" rx="12" fill="#F0F0FD"/>
<path d="M41.956 13.6067C42.3989 13.3753 42.9149 13.7135 42.8988 14.1958L42.8928 14.2656L39.1017 41.8362C39.045 42.2484 38.6223 42.4929 38.2436 42.3544L38.1732 42.3238L29.4774 37.9408C29.1596 37.7806 29.0318 37.3931 29.192 37.0752C29.3408 36.7801 29.6855 36.6488 29.9885 36.7599L30.0576 36.7898L37.9479 40.7663L41.4453 15.3275L14.9451 29.1715L21.4499 32.4512C21.745 32.5999 21.8763 32.9447 21.7653 33.2476L21.7353 33.3167C21.5866 33.6118 21.2418 33.7431 20.9388 33.6321L20.8698 33.6021L13.2431 29.7579C12.8004 29.5348 12.7715 28.9271 13.1615 28.6555L13.2347 28.6112L41.956 13.6067Z" fill="#6C76F0"/>
<path d="M41.7414 14.1135C41.9692 13.8401 42.3756 13.8031 42.649 14.031C42.9014 14.2413 42.9522 14.6038 42.7794 14.8733L42.7315 14.9386L25.4943 35.6202L25.4949 43.8182C25.4949 44.1487 25.2462 44.4211 24.9257 44.4583L24.8505 44.4627C24.52 44.4627 24.2476 44.2139 24.2104 43.8934L24.2061 43.8182V35.3867C24.2061 35.2661 24.2399 35.1485 24.3028 35.047L24.3554 34.9741L41.7414 14.1135Z" fill="#6C76F0"/>
</svg>
