<svg width="58" height="58" viewBox="0 0 58 58" fill="none" xmlns="http://www.w3.org/2000/svg">
<rect width="58" height="58" rx="12" fill="#FBF0E4"/>
<path fill-rule="evenodd" clip-rule="evenodd" d="M18.623 22.5556C18.623 17.2168 22.951 12.8889 28.2897 12.8889C33.6285 12.8889 37.9564 17.2168 37.9564 22.5556C37.9564 27.8943 33.6285 32.2222 28.2897 32.2222C22.951 32.2222 18.623 27.8943 18.623 22.5556ZM36.6675 22.5552C36.6675 17.9283 32.9166 14.1774 28.2897 14.1774C23.6628 14.1774 19.9119 17.9283 19.9119 22.5552C19.9119 27.1821 23.6628 30.933 28.2897 30.933C32.9166 30.933 36.6675 27.1821 36.6675 22.5552Z" fill="#E3A56D"/>
<path d="M28.2894 30.9331C28.6454 30.9331 28.9339 31.2216 28.9339 31.5775C28.9339 31.9335 28.6454 32.222 28.2894 32.222C21.6485 32.222 16.1114 37.2678 15.4636 43.8279C15.4286 44.1821 15.1131 44.4409 14.7589 44.4059C14.4047 44.371 14.1459 44.0555 14.1809 43.7013C14.8938 36.4832 20.9842 30.9331 28.2894 30.9331Z" fill="#E3A56D"/>
<rect x="34.0894" y="33.5111" width="9.02222" height="1.28889" rx="0.644444" fill="#E3A56D"/>
<rect x="32.1562" y="38.022" width="10.9556" height="1.28889" rx="0.644444" fill="#E3A56D"/>
<rect x="32.1562" y="42.5332" width="10.9556" height="1.28889" rx="0.644444" fill="#E3A56D"/>
</svg>
